<svg width="21" height="17" viewBox="0 0 21 17" fill="none" xmlns="http://www.w3.org/2000/svg">
<path d="M5.18336 0.0118275C4.75289 0.0759468 4.31275 0.325851 4.04512 0.659603C3.8452 0.907862 3.84842 0.901285 3.25673 2.33659C2.9891 2.98765 2.58442 3.96753 2.35871 4.51502C2.13461 5.0625 1.92663 5.56724 1.89761 5.63629L1.84602 5.76289L1.71704 5.80564C1.6461 5.82865 1.5139 5.88455 1.42361 5.9273C0.804509 6.22982 0.348244 6.7625 0.130592 7.43659C0 7.83775 0.00967346 7.59278 0.00322449 10.807L0 13.6727H0.822244H1.64449V14.5013C1.64449 14.9567 1.65255 15.4039 1.66061 15.496C1.73316 16.2095 2.21522 16.7734 2.90204 16.9494C3.09712 16.9987 3.44859 16.9987 3.64367 16.9494C4.32565 16.7751 4.8061 16.2144 4.88348 15.5091C4.89477 15.417 4.90122 14.9978 4.90122 14.5112V13.6727H10.3184H15.7355V14.5753C15.7355 15.5436 15.7403 15.6275 15.8209 15.8675C15.9983 16.3953 16.4239 16.7981 16.9543 16.9378C17.8653 17.1762 18.7713 16.5909 18.9551 15.6456C18.9745 15.5436 18.9777 15.3562 18.9761 14.5983L18.9745 13.6727L19.8016 13.6694L20.6286 13.6644L20.6335 10.9023C20.6383 8.04326 20.6367 7.97092 20.5722 7.67005C20.4594 7.15051 20.1546 6.63591 19.758 6.29393C19.5001 6.07198 19.276 5.94045 18.9471 5.81879L18.781 5.75631L18.5311 5.148C18.3925 4.8126 18.1684 4.2684 18.0313 3.93465C17.8943 3.60254 17.6702 3.05506 17.5315 2.71802C16.7641 0.853607 16.8076 0.952253 16.6609 0.750029C16.403 0.391615 16.0402 0.154863 15.5581 0.0299129C15.4614 0.00525093 15.0374 0.0036068 10.3667 0.000318527C7.54691 -0.00132561 5.23656 0.0036068 5.18336 0.0118275ZM15.247 1.38958C15.3437 1.43397 15.463 1.55564 15.5017 1.64771C15.542 1.74306 15.7016 2.13272 15.9822 2.81337C16.1192 3.14713 16.3707 3.76202 16.5416 4.17798C16.7125 4.59394 16.9189 5.09703 16.9995 5.29597L17.1478 5.65767L13.7331 5.6626C11.8548 5.66424 8.78027 5.66424 6.90201 5.6626L3.48567 5.65767L3.70655 5.11512C3.82908 4.81589 4.19989 3.90999 4.5304 3.10109C4.86091 2.2922 5.15273 1.59838 5.17852 1.56057C5.2414 1.46521 5.36877 1.37972 5.48969 1.35341C5.50742 1.34848 7.69201 1.34684 10.3425 1.34848L15.1631 1.35013L15.247 1.38958ZM3.53081 7.34287C4.22408 7.41686 4.78352 7.90187 4.96893 8.5891C4.99795 8.69432 5.0044 8.76337 5.0044 8.99519C5.00601 9.3125 4.98667 9.42266 4.8851 9.6627C4.72548 10.0458 4.3853 10.3943 4.01932 10.5489C3.77748 10.6524 3.67914 10.6705 3.36959 10.6705C3.06004 10.6705 2.96169 10.6524 2.71985 10.5489C2.36194 10.3976 2.01853 10.0507 1.86214 9.68243C1.70092 9.30264 1.68157 8.85216 1.80894 8.47072C2.01208 7.85912 2.56024 7.41192 3.1874 7.34452C3.36475 7.32479 3.36153 7.32479 3.53081 7.34287ZM17.3139 7.34287C17.962 7.41192 18.5069 7.84925 18.7149 8.47072C18.8084 8.75022 18.8229 9.13001 18.752 9.41115C18.5972 10.0145 18.1571 10.4667 17.5638 10.6344C17.3864 10.6837 16.9479 10.687 16.7673 10.6409C16.482 10.567 16.2369 10.4288 16.0225 10.2217C15.8016 10.008 15.6565 9.76628 15.5646 9.45554C15.5227 9.31744 15.5194 9.28784 15.5194 9.00341C15.5194 8.72227 15.5227 8.68939 15.5614 8.55951C15.6533 8.25535 15.7806 8.03668 15.9854 7.82788C16.2885 7.51879 16.6271 7.36918 17.1236 7.32807C17.1381 7.32807 17.2236 7.33465 17.3139 7.34287Z" fill="black"/>
</svg>
