<svg width="19" height="19" viewBox="0 0 19 19" fill="none" xmlns="http://www.w3.org/2000/svg">
<path d="M18.2268 0.640339L18.2038 0.61948C17.7646 0.220018 17.1952 0 16.6006 0C15.934 0 15.294 0.280958 14.8446 0.77077L6.34738 10.0332C6.26993 10.1176 6.21118 10.2172 6.17486 10.3256L5.17571 13.308C5.06019 13.6528 5.11817 14.0341 5.33078 14.3279C5.54508 14.6241 5.89033 14.8009 6.25439 14.8009C6.41187 14.8009 6.56584 14.7687 6.71182 14.7051L9.60475 13.445C9.70993 13.3992 9.80429 13.3319 9.88168 13.2475L18.379 3.98515C19.2632 3.02138 19.195 1.52101 18.2268 0.640339ZM7.09005 12.757L7.67635 11.007L7.7258 10.9531L8.83702 11.9637L8.78758 12.0176L7.09005 12.757ZM17.1674 2.88327L9.94371 10.7574L8.83248 9.74689L16.0562 1.87266C16.1975 1.71864 16.3909 1.63379 16.6007 1.63379C16.7847 1.63379 16.961 1.70198 17.0974 1.82604L17.1203 1.8469C17.4203 2.11969 17.4414 2.58461 17.1674 2.88327Z" fill="black"/>
<path d="M16.5783 7.53659C16.1252 7.53659 15.7578 7.90234 15.7578 8.35349V15.2888C15.7578 16.4343 14.8218 17.3663 13.6713 17.3663H3.72744C2.57689 17.3663 1.64091 16.4343 1.64091 15.2888V5.46848C1.64091 4.32297 2.57694 3.391 3.72744 3.391H10.9249C11.378 3.391 11.7453 3.02524 11.7453 2.5741C11.7453 2.12295 11.378 1.7572 10.9249 1.7572H3.72744C1.67209 1.7572 0 3.42209 0 5.46848V15.2887C0 17.3351 1.67214 19 3.72744 19H13.6713C15.7266 19 17.3987 17.3351 17.3987 15.2887V8.35349C17.3988 7.90234 17.0314 7.53659 16.5783 7.53659Z" fill="black"/>
</svg>
