<svg width="27" height="28" viewBox="0 0 27 28" fill="none" xmlns="http://www.w3.org/2000/svg">
<path d="M13.5 2.625C7.44525 2.625 2.53125 7.721 2.53125 14C2.53125 20.279 7.44525 25.375 13.5 25.375C19.5548 25.375 24.4688 20.279 24.4688 14C24.4688 7.721 19.5548 2.625 13.5 2.625ZM13.5 4.375C18.6233 4.375 22.7812 8.687 22.7812 14C22.7812 19.313 18.6233 23.625 13.5 23.625C8.37675 23.625 4.21875 19.313 4.21875 14C4.21875 8.687 8.37675 4.375 13.5 4.375Z" fill="black"/>
<path d="M15.1872 8.96888C15.1872 9.49104 14.9872 9.99181 14.6312 10.361C14.2752 10.7302 13.7923 10.9377 13.2888 10.9377C12.7853 10.9377 12.3024 10.7302 11.9464 10.361C11.5904 9.99181 11.3904 9.49104 11.3904 8.96888C11.3904 8.44673 11.5904 7.94596 11.9464 7.57674C12.3024 7.20752 12.7853 7.00009 13.2888 7.00009C13.7923 7.00009 14.2752 7.20752 14.6312 7.57674C14.9872 7.94596 15.1872 8.44673 15.1872 8.96888Z" fill="black"/>
<path d="M15.2997 19.418C15.2881 19.8957 15.5041 20.0305 16.0299 20.0865L16.875 20.104V21H10.2814V20.104L11.2101 20.0865C11.7654 20.069 11.8989 19.845 11.9402 19.418V14.0257C11.9462 13.1719 10.8778 13.306 10.125 13.3313V12.4434L15.2997 12.25" fill="black"/>
</svg>
