<svg width="137" height="25" viewBox="0 0 137 25" fill="none" xmlns="http://www.w3.org/2000/svg">
<g clip-path="url(#clip0_28_635)">
<path d="M137 0H0V25H137V0Z" fill="white"/>
<g clip-path="url(#clip1_28_635)">
<g clip-path="url(#clip2_28_635)">
<g clip-path="url(#clip3_28_635)">
<g clip-path="url(#clip4_28_635)">
<g clip-path="url(#clip5_28_635)">
<g clip-path="url(#clip6_28_635)">
<g clip-path="url(#clip7_28_635)">
<path d="M16.5345 7.40013C16.0907 7.20671 15.4251 7.11001 14.5376 7.11001C13.6501 7.11001 12.9327 7.49684 12.3854 8.27051C11.8381 9.04417 11.5645 10.3981 11.5645 12.3323C11.5645 14.2664 11.8278 15.6382 12.3543 16.4476C12.878 17.2599 13.6575 17.6661 14.6929 17.6661C16.2756 17.6661 17.6956 17.4281 18.9529 16.9519L19.7517 18.9382C18.1838 19.8755 16.3422 20.3442 14.227 20.3442C12.1118 20.3442 10.5838 19.7416 9.64302 18.5365C8.70523 17.3313 8.23633 15.36 8.23633 12.6224C8.23633 9.88479 8.81764 7.86136 9.98027 6.55207C11.1399 5.24279 12.77 4.58815 14.8704 4.58815C16.5567 4.58815 18.1616 5.05681 19.6851 5.99414C19.6851 6.08341 19.6851 6.25451 19.6851 6.50744C19.6851 6.76037 19.6334 7.19183 19.5298 7.80184C19.4263 8.41185 19.2783 8.91027 19.0861 9.2971H16.9782C16.7712 8.89539 16.6232 8.26307 16.5345 7.40013ZM20.5283 6.03877L20.7501 4.32034C21.5785 4.12692 22.3476 4.03021 23.0576 4.03021C23.7676 4.03021 24.3667 4.05253 24.8548 4.09717V9.6765C25.2098 9.43845 25.6832 9.23759 26.2748 9.07393C26.8665 8.91027 27.3916 8.82844 27.8502 8.82844C29.3145 8.82844 30.3278 9.18552 30.8899 9.89967C31.4519 10.6138 31.733 11.6999 31.733 13.158V17.6884C32.3099 17.9116 32.7166 18.1645 32.9533 18.4472L32.7314 20.1656H27.6283L27.4064 18.4472C27.6135 18.1645 28.0203 17.9116 28.6267 17.6884V13.2696C28.6267 12.4662 28.4966 11.9276 28.2362 11.6538C27.9788 11.3771 27.5099 11.2387 26.8295 11.2387C26.1491 11.2387 25.4909 11.4768 24.8548 11.9529V17.6884C25.4317 17.9116 25.8385 18.1645 26.0751 18.4472L25.8533 20.1656H20.7501L20.5283 18.4472C20.7353 18.1645 21.1421 17.9116 21.7486 17.6884V6.79756C21.2309 6.61902 20.8241 6.36609 20.5283 6.03877ZM34.1736 10.6585C34.1736 10.4353 34.181 10.1972 34.1958 9.94431C35.5714 9.2004 37.0506 8.82844 38.6333 8.82844C40.2131 8.82844 41.3476 9.12898 42.0369 9.73006C42.7262 10.3341 43.0708 11.3354 43.0708 12.734V17.4876C43.5885 17.5917 43.9953 17.7182 44.2912 17.867V19.8086C43.5368 20.1656 42.457 20.3442 41.0518 20.3442C40.9038 19.9574 40.7766 19.4887 40.6701 18.9382C40.0371 19.8755 38.8848 20.3442 37.2133 20.3442C36.2223 20.3442 35.3747 20.0541 34.6706 19.4738C33.9695 18.8936 33.6189 18.105 33.6189 17.1082C33.6189 16.1113 33.9473 15.3258 34.6041 14.7515C35.2638 14.1801 36.2445 13.8945 37.5461 13.8945H39.9646V12.8232C39.9646 11.6627 39.3492 11.0825 38.1186 11.0825C37.663 11.0825 37.2873 11.1271 36.9914 11.2164C36.9619 11.8413 36.8731 12.3248 36.7252 12.667H34.5508C34.2993 12.1463 34.1736 11.4768 34.1736 10.6585ZM38.1674 18.0678C38.9218 18.0678 39.5208 17.8446 39.9646 17.3983V15.5683H38.4114C37.3464 15.5683 36.8139 15.9774 36.8139 16.7957C36.8139 17.1677 36.9278 17.4727 37.1556 17.7107C37.3864 17.9488 37.7236 18.0678 38.1674 18.0678ZM45.0855 10.7254L45.3073 9.00698C46.1209 8.82844 46.8531 8.73917 47.5039 8.73917C48.1548 8.73917 48.6946 8.75405 49.1236 8.78381V9.89967C49.4786 9.60211 49.9224 9.34918 50.4549 9.14088C50.9874 8.93259 51.4681 8.82844 51.8971 8.82844C53.5833 8.82844 54.7075 9.25247 55.2696 10.1005C55.6394 9.74345 56.1275 9.44142 56.734 9.19444C57.3404 8.95044 57.9025 8.82844 58.4202 8.82844C60.0473 8.82844 61.1419 9.19593 61.704 9.93092C62.2661 10.6689 62.5471 12.0496 62.5471 14.073V17.6884C63.124 17.9116 63.5307 18.1645 63.7674 18.4472L63.5455 20.1656H58.4424L58.2205 18.4472C58.4276 18.1645 58.8344 17.9116 59.4408 17.6884V13.2696C59.4408 12.4513 59.3299 11.9082 59.108 11.6404C58.8861 11.3726 58.4468 11.2387 57.7901 11.2387C57.1304 11.2387 56.5047 11.4842 55.913 11.9752C55.987 12.481 56.0239 13.1803 56.0239 14.073V17.6884C56.6008 17.9116 57.0076 18.1645 57.2443 18.4472L57.0224 20.1656H51.9192L51.6974 18.4472C51.9045 18.1645 52.3112 17.9116 52.9177 17.6884V13.2696C52.9177 12.4513 52.8067 11.9082 52.5849 11.6404C52.363 11.3726 51.9266 11.2387 51.2758 11.2387C50.625 11.2387 50.0037 11.4768 49.412 11.9529V17.6884C49.9889 17.9116 50.3957 18.1645 50.6324 18.4472L50.4105 20.1656H45.3073L45.0855 18.4472C45.2926 18.1645 45.6993 17.9116 46.3058 17.6884V11.4842C45.7881 11.3057 45.3813 11.0527 45.0855 10.7254ZM64.8768 4.76669H69.9134C71.6588 4.76669 72.9279 4.8753 73.7208 5.09252C74.5106 5.30676 75.0757 5.56267 75.4159 5.86023C76.1703 6.51488 76.5475 7.51916 76.5475 8.87307C76.5475 9.88479 76.0076 10.8444 74.9278 11.752C76.3034 12.4513 76.9912 13.7531 76.9912 15.6575C76.9912 17.1454 76.5075 18.2493 75.5401 18.9694C74.5698 19.6925 73.1232 20.0913 71.2003 20.1656H64.8768L64.6549 18.3133C64.8472 18.0604 65.254 17.8149 65.8752 17.5768V7.37781C65.2688 7.15464 64.862 6.90171 64.6549 6.61902L64.8768 4.76669ZM71.0449 13.4928H69.0702V17.7331H70.6012C71.607 17.7331 72.3688 17.5843 72.8865 17.2867C73.4042 16.9891 73.6631 16.4535 73.6631 15.6799C73.6631 14.9062 73.4604 14.3483 73.0551 14.0061C72.6469 13.6639 71.9768 13.4928 71.0449 13.4928ZM70.224 7.19927H69.0702V11.0602H70.8896C71.644 11.0602 72.2209 10.8668 72.6203 10.4799C73.0196 10.0931 73.2193 9.61996 73.2193 9.06054C73.2193 8.50409 73.0788 8.08453 72.7978 7.80184C72.5167 7.51916 72.1913 7.34806 71.8215 7.28854C71.4517 7.22903 70.9192 7.19927 70.224 7.19927ZM77.9453 6.03877L78.1672 4.32034C78.9955 4.12692 79.7647 4.03021 80.4747 4.03021C81.1847 4.03021 81.7837 4.05253 82.2719 4.09717V17.6884C82.8487 17.9116 83.2555 18.1645 83.4922 18.4472L83.2703 20.1656H78.1672L77.9453 18.4472C78.1524 18.1645 78.5591 17.9116 79.1656 17.6884V6.79756C78.6479 6.61902 78.2411 6.36609 77.9453 6.03877ZM84.8456 10.6585C84.8456 10.4353 84.853 10.1972 84.8678 9.94431C86.2434 9.2004 87.7226 8.82844 89.3053 8.82844C90.8851 8.82844 92.0196 9.12898 92.7089 9.73006C93.3982 10.3341 93.7428 11.3354 93.7428 12.734V17.4876C94.2606 17.5917 94.6673 17.7182 94.9632 17.867V19.8086C94.2088 20.1656 93.129 20.3442 91.7238 20.3442C91.5759 19.9574 91.4486 19.4887 91.3421 18.9382C90.7091 19.8755 89.5568 20.3442 87.8853 20.3442C86.8943 20.3442 86.0467 20.0541 85.3426 19.4738C84.6415 18.8936 84.2909 18.105 84.2909 17.1082C84.2909 16.1113 84.6193 15.3258 85.2761 14.7515C85.9358 14.1801 86.9165 13.8945 88.2181 13.8945H90.6366V12.8232C90.6366 11.6627 90.0212 11.0825 88.7906 11.0825C88.335 11.0825 87.9593 11.1271 87.6634 11.2164C87.6339 11.8413 87.5451 12.3248 87.3972 12.667H85.2228C84.9714 12.1463 84.8456 11.4768 84.8456 10.6585ZM88.8394 18.0678C89.5938 18.0678 90.1928 17.8446 90.6366 17.3983V15.5683H89.0835C88.0184 15.5683 87.4859 15.9774 87.4859 16.7957C87.4859 17.1677 87.5998 17.4727 87.8276 17.7107C88.0584 17.9488 88.3956 18.0678 88.8394 18.0678ZM104.144 7.40013C103.701 7.20671 103.035 7.11001 102.148 7.11001C101.26 7.11001 100.543 7.49684 99.9953 8.27051C99.448 9.04417 99.1744 10.3981 99.1744 12.3323C99.1744 14.2664 99.4377 15.6382 99.9642 16.4476C100.488 17.2599 101.267 17.6661 102.303 17.6661C103.886 17.6661 105.306 17.4281 106.563 16.9519L107.362 18.9382C105.794 19.8755 103.952 20.3442 101.837 20.3442C99.7217 20.3442 98.1952 19.7416 97.2574 18.5365C96.3166 17.3313 95.8462 15.36 95.8462 12.6224C95.8462 9.88479 96.4275 7.86136 97.5902 6.55207C98.7498 5.24279 100.38 4.58815 102.48 4.58815C104.167 4.58815 105.771 5.05681 107.295 5.99414C107.295 6.08341 107.295 6.25451 107.295 6.50744C107.295 6.76037 107.243 7.19183 107.14 7.80184C107.036 8.41185 106.888 8.91027 106.696 9.2971H104.588C104.381 8.89539 104.233 8.26307 104.144 7.40013ZM108.848 10.6585C108.848 10.4353 108.856 10.1972 108.87 9.94431C110.246 9.2004 111.725 8.82844 113.308 8.82844C114.891 8.82844 116.027 9.12898 116.716 9.73006C117.402 10.3341 117.745 11.3354 117.745 12.734V17.4876C118.263 17.5917 118.67 17.7182 118.966 17.867V19.8086C118.211 20.1656 117.132 20.3442 115.726 20.3442C115.578 19.9574 115.453 19.4887 115.349 18.9382C114.713 19.8755 113.559 20.3442 111.888 20.3442C110.897 20.3442 110.051 20.0541 109.35 19.4738C108.646 18.8936 108.293 18.105 108.293 17.1082C108.293 16.1113 108.623 15.3258 109.283 14.7515C109.94 14.1801 110.919 13.8945 112.221 13.8945H114.639V12.8232C114.639 11.6627 114.025 11.0825 112.798 11.0825C112.339 11.0825 111.962 11.1271 111.666 11.2164C111.636 11.8413 111.548 12.3248 111.4 12.667H109.225C108.974 12.1463 108.848 11.4768 108.848 10.6585ZM112.842 18.0678C113.596 18.0678 114.195 17.8446 114.639 17.3983V15.5683H113.086C112.021 15.5683 111.488 15.9774 111.488 16.7957C111.488 17.1677 111.604 17.4727 111.835 17.7107C112.062 17.9488 112.398 18.0678 112.842 18.0678ZM126.421 11.752C125.297 11.752 124.52 11.9677 124.091 12.3992V17.5099C125.289 17.7331 126.11 18.0455 126.554 18.4472L126.332 20.1656H119.986L119.764 18.4472C119.972 18.1645 120.378 17.9116 120.985 17.6884V11.4842C120.467 11.3057 120.06 11.0527 119.764 10.7254L119.986 9.00698C120.8 8.82844 121.532 8.73917 122.183 8.73917C122.834 8.73917 123.374 8.75405 123.803 8.78381V10.1898C124.143 9.78808 124.579 9.4563 125.112 9.19444C125.644 8.93556 126.128 8.80612 126.563 8.80612C127.001 8.80612 127.301 8.84332 127.464 8.91771L127.397 11.819C127.101 11.7743 126.776 11.752 126.421 11.752Z" fill="black"/>
</g>
</g>
</g>
</g>
</g>
</g>
</g>
</g>
<rect x="1.5" y="1.5" width="134" height="22" rx="3.5" stroke="#999999" stroke-width="3"/>
<defs>
<clipPath id="clip0_28_635">
<rect width="137" height="25" rx="5" fill="white"/>
</clipPath>
<clipPath id="clip1_28_635">
<rect x="8" y="4" width="119.7" height="16.3744" fill="white"/>
</clipPath>
<clipPath id="clip2_28_635">
<rect width="119.236" height="16.314" fill="white" transform="translate(8.23193 4.03021)"/>
</clipPath>
<clipPath id="clip3_28_635">
<rect width="119.236" height="16.314" fill="white" transform="translate(8.23193 4.03021)"/>
</clipPath>
<clipPath id="clip4_28_635">
<rect width="119.236" height="16.314" fill="white" transform="translate(8.23193 4.03021)"/>
</clipPath>
<clipPath id="clip5_28_635">
<rect width="119.236" height="16.314" fill="white" transform="translate(8.23193 4.03021)"/>
</clipPath>
<clipPath id="clip6_28_635">
<rect width="119.236" height="16.314" fill="white" transform="translate(8.23193 4.03021)"/>
</clipPath>
<clipPath id="clip7_28_635">
<rect width="119.236" height="16.314" fill="white" transform="translate(8.23193 4.03021)"/>
</clipPath>
</defs>
</svg>
