<svg width="335" height="335" viewBox="0 0 335 335" fill="none" xmlns="http://www.w3.org/2000/svg">
<path d="M181.458 41.875H153.542V181.458H181.458V41.875ZM248.877 72.1646L229.056 91.9854C251.11 109.713 265.208 136.931 265.208 167.5C265.208 221.519 221.519 265.208 167.5 265.208C113.481 265.208 69.7917 221.519 69.7917 167.5C69.7917 136.931 83.8896 109.713 105.804 91.8458L86.1229 72.1646C59.0437 95.1958 41.875 129.254 41.875 167.5C41.875 236.873 98.1271 293.125 167.5 293.125C236.873 293.125 293.125 236.873 293.125 167.5C293.125 129.254 275.956 95.1958 248.877 72.1646Z" fill="white"/>
</svg>
