<svg width="17" height="17" viewBox="0 0 17 17" fill="none" xmlns="http://www.w3.org/2000/svg">
<g clip-path="url(#clip0_28_644)">
<path d="M6.59381 0.00407982C6.56061 0.00684547 6.45303 0.0151367 6.35475 0.0234299C4.78623 0.154732 3.2549 0.874813 2.126 2.01367C1.70498 2.43798 1.37162 2.86229 1.07412 3.35018C0.477793 4.32872 0.13248 5.39294 0.0169336 6.6092C-0.00564453 6.84831 -0.00564453 7.60433 0.0169336 7.85311C0.108574 8.87311 0.379512 9.82262 0.819121 10.6726C1.48318 11.9552 2.48725 12.9877 3.72639 13.6635C4.94693 14.3283 6.37732 14.5992 7.77584 14.4306C8.92865 14.2924 10.0708 13.8363 10.9992 13.1438C11.0736 13.0886 11.1373 13.0429 11.1426 13.0429C11.1466 13.0429 11.994 13.8556 13.0259 14.8494C14.0565 15.8417 14.9344 16.682 14.9743 16.7152C15.0699 16.7954 15.2864 16.906 15.4192 16.9433C15.5733 16.9861 15.8907 16.9861 16.0434 16.9433C16.8403 16.7152 17.2175 15.7864 16.8151 15.0429C16.7115 14.8521 16.916 15.0539 14.2744 12.5122L12.84 11.1329L12.9515 10.9366C13.1733 10.5496 13.4031 10.0286 13.5479 9.58489C14.0831 7.94433 14.0366 6.14758 13.4177 4.53189C12.9024 3.18294 11.9913 2.01644 10.8292 1.21205C9.86498 0.54587 8.81443 0.156113 7.64303 0.0303402C7.45178 0.00960922 6.73725 -0.008358 6.59381 0.00407982ZM7.40928 2.60107C8.28053 2.69782 9.06545 3.03506 9.76139 3.6114C9.94865 3.76619 10.3006 4.13245 10.4507 4.32872C11.2396 5.35701 11.5716 6.63408 11.387 7.93327C11.144 9.64571 9.94334 11.1232 8.35357 11.665C7.83693 11.8419 7.41459 11.9055 6.84217 11.8916C6.48623 11.8833 6.30295 11.8612 6.00279 11.7921C4.74107 11.4977 3.66928 10.6657 3.03709 9.48953C2.5417 8.56904 2.36506 7.47993 2.54303 6.43644C2.75553 5.1801 3.46873 4.05506 4.50201 3.34603C5.10631 2.9314 5.76904 2.684 6.49154 2.60246C6.716 2.57619 7.18217 2.57619 7.40928 2.60107Z" fill="black"/>
</g>
<defs>
<clipPath id="clip0_28_644">
<rect width="17" height="17" fill="white"/>
</clipPath>
</defs>
</svg>
